STARTFONT 2.1
FONT -wooosh-grounded-medium-r-normal--16-160-75-75-m-80-iso10646-1
SIZE 75 75
FONTBOUNDINGBOX 8 16 0 -3
STARTPROPERTIES 18
FONT_ASCENT 13
FONT_DESCENT 3
FONTNAME_REGISTRY ""
FOUNDRY "wooosh"
FAMILY_NAME "grounded"
WEIGHT_NAME "medium"
SLANT "r"
SETWIDTH_NAME "normal"
ADD_STYLE_NAME ""
PIXEL_SIZE 16
POINT_SIZE 160
RESOLUTION_X 75
RESOLUTION_Y 75
SPACING "m"
AVERAGE_WIDTH 80
CHARSET_REGISTRY "ISO10646"
CHARSET_ENCODING "1"
DEFAULT_CHAR 0
ENDPROPERTIES
CHARS 122
STARTCHAR U+0020
ENCODING 32
SWIDTH 600 0
DWIDTH 8 0
BBX 8 16 0 -2
BITMAP
00
00
00
00
00
00
00
00
00
00
00
00
00
00
00
00
ENDCHAR
STARTCHAR U+0021
ENCODING 33
SWIDTH 600 0
DWIDTH 8 0
BBX 8 16 0 -2
BITMAP
00
00
00
18
18
18
18
18
18
18
00
18
18
00
00
00
ENDCHAR
STARTCHAR U+0022
ENCODING 34
SWIDTH 600 0
DWIDTH 8 0
BBX 8 16 0 -2
BITMAP
00
00
00
6C
6C
6C
00
00
00
00
00
00
00
00
00
00
ENDCHAR
STARTCHAR U+0023
ENCODING 35
SWIDTH 600 0
DWIDTH 8 0
BBX 8 16 0 -2
BITMAP
00
00
00
6C
6C
FE
FE
6C
6C
FE
FE
6C
00
00
00
00
ENDCHAR
STARTCHAR U+0024
ENCODING 36
SWIDTH 600 0
DWIDTH 8 0
BBX 8 16 0 -2
BITMAP
00
00
10
FE
FE
D6
D0
FE
FE
16
FE
FE
10
00
00
00
ENDCHAR
STARTCHAR U+0025
ENCODING 37
SWIDTH 600 0
DWIDTH 8 0
BBX 8 16 0 -2
BITMAP
00
00
E0
A2
E6
0C
18
30
60
CE
8A
0E
00
00
00
00
ENDCHAR
STARTCHAR U+0026
ENCODING 38
SWIDTH 600 0
DWIDTH 8 0
BBX 8 16 0 -2
BITMAP
00
00
10
FE
FE
D0
D0
FE
D0
D0
FE
FE
10
00
00
00
ENDCHAR
STARTCHAR U+0027
ENCODING 39
SWIDTH 600 0
DWIDTH 8 0
BBX 8 16 0 -2
BITMAP
00
00
00
30
30
30
00
00
00
00
00
00
00
00
00
00
ENDCHAR
STARTCHAR U+0028
ENCODING 40
SWIDTH 600 0
DWIDTH 8 0
BBX 8 16 0 -2
BITMAP
00
00
0C
1C
30
30
30
30
30
30
30
30
1C
0C
00
00
ENDCHAR
STARTCHAR U+0029
ENCODING 41
SWIDTH 600 0
DWIDTH 8 0
BBX 8 16 0 -2
BITMAP
00
00
60
70
18
18
18
18
18
18
18
18
70
60
00
00
ENDCHAR
STARTCHAR U+002A
ENCODING 42
SWIDTH 600 0
DWIDTH 8 0
BBX 8 16 0 -2
BITMAP
00
00
00
00
10
92
D6
7C
7C
D6
92
10
00
00
00
00
ENDCHAR
STARTCHAR U+002B
ENCODING 43
SWIDTH 600 0
DWIDTH 8 0
BBX 8 16 0 -2
BITMAP
00
00
00
00
00
10
10
7C
7C
10
10
00
00
00
00
00
ENDCHAR
STARTCHAR U+002C
ENCODING 44
SWIDTH 600 0
DWIDTH 8 0
BBX 8 16 0 -2
BITMAP
00
00
00
00
00
00
00
00
00
00
30
30
10
20
00
00
ENDCHAR
STARTCHAR U+002D
ENCODING 45
SWIDTH 600 0
DWIDTH 8 0
BBX 8 16 0 -2
BITMAP
00
00
00
00
00
00
00
7C
7C
00
00
00
00
00
00
00
ENDCHAR
STARTCHAR U+002E
ENCODING 46
SWIDTH 600 0
DWIDTH 8 0
BBX 8 16 0 -2
BITMAP
00
00
00
00
00
00
00
00
00
00
00
30
30
00
00
00
ENDCHAR
STARTCHAR U+002F
ENCODING 47
SWIDTH 600 0
DWIDTH 8 0
BBX 8 16 0 -2
BITMAP
00
00
00
06
06
0C
0C
18
18
30
30
60
60
00
00
00
ENDCHAR
STARTCHAR U+003A
ENCODING 58
SWIDTH 600 0
DWIDTH 8 0
BBX 8 16 0 -2
BITMAP
00
00
00
00
30
30
00
00
00
00
00
30
30
00
00
00
ENDCHAR
STARTCHAR U+003B
ENCODING 59
SWIDTH 600 0
DWIDTH 8 0
BBX 8 16 0 -2
BITMAP
00
00
00
00
30
30
00
00
00
00
30
30
10
20
00
00
ENDCHAR
STARTCHAR U+003C
ENCODING 60
SWIDTH 600 0
DWIDTH 8 0
BBX 8 16 0 -2
BITMAP
00
00
00
00
04
0C
18
30
20
30
18
0C
04
00
00
00
ENDCHAR
STARTCHAR U+003D
ENCODING 61
SWIDTH 600 0
DWIDTH 8 0
BBX 8 16 0 -2
BITMAP
00
00
00
00
00
7C
7C
00
00
7C
7C
00
00
00
00
00
ENDCHAR
STARTCHAR U+003E
ENCODING 62
SWIDTH 600 0
DWIDTH 8 0
BBX 8 16 0 -2
BITMAP
00
00
00
00
20
30
18
0C
04
0C
18
30
20
00
00
00
ENDCHAR
STARTCHAR U+003F
ENCODING 63
SWIDTH 600 0
DWIDTH 8 0
BBX 8 16 0 -2
BITMAP
00
00
38
7C
66
06
06
0C
18
18
00
18
18
00
00
00
ENDCHAR
STARTCHAR U+0040
ENCODING 64
SWIDTH 600 0
DWIDTH 8 0
BBX 8 16 0 -2
BITMAP
00
00
7C
FE
C6
DE
D2
D2
DE
C0
C2
FE
7C
00
00
00
ENDCHAR
STARTCHAR U+005B
ENCODING 91
SWIDTH 600 0
DWIDTH 8 0
BBX 8 16 0 -2
BITMAP
00
00
3C
3C
30
30
30
30
30
30
30
3C
3C
00
00
00
ENDCHAR
STARTCHAR U+005C
ENCODING 92
SWIDTH 600 0
DWIDTH 8 0
BBX 8 16 0 -2
BITMAP
00
00
00
60
60
30
30
18
18
0C
0C
06
06
00
00
00
ENDCHAR
STARTCHAR U+005D
ENCODING 93
SWIDTH 600 0
DWIDTH 8 0
BBX 8 16 0 -2
BITMAP
00
00
78
78
18
18
18
18
18
18
18
78
78
00
00
00
ENDCHAR
STARTCHAR U+005E
ENCODING 94
SWIDTH 600 0
DWIDTH 8 0
BBX 8 16 0 -2
BITMAP
00
00
00
10
38
6C
44
00
00
00
00
00
00
00
00
00
ENDCHAR
STARTCHAR U+005F
ENCODING 95
SWIDTH 600 0
DWIDTH 8 0
BBX 8 16 0 -2
BITMAP
00
00
00
00
00
00
00
00
00
00
00
00
FE
FE
00
00
ENDCHAR
STARTCHAR U+0060
ENCODING 96
SWIDTH 600 0
DWIDTH 8 0
BBX 8 16 0 -2
BITMAP
00
00
00
40
60
30
10
00
00
00
00
00
00
00
00
00
ENDCHAR
STARTCHAR U+007B
ENCODING 123
SWIDTH 600 0
DWIDTH 8 0
BBX 8 16 0 -2
BITMAP
00
00
1C
3C
30
30
30
40
30
30
30
3C
1C
00
00
00
ENDCHAR
STARTCHAR U+007C
ENCODING 124
SWIDTH 600 0
DWIDTH 8 0
BBX 8 16 0 -2
BITMAP
00
00
30
30
30
30
30
30
30
30
30
30
30
00
00
00
ENDCHAR
STARTCHAR U+007D
ENCODING 125
SWIDTH 600 0
DWIDTH 8 0
BBX 8 16 0 -2
BITMAP
00
00
70
78
18
18
18
04
18
18
18
78
70
00
00
00
ENDCHAR
STARTCHAR U+007E
ENCODING 126
SWIDTH 600 0
DWIDTH 8 0
BBX 8 16 0 -2
BITMAP
00
00
00
00
00
20
70
54
1C
08
00
00
00
00
00
00
ENDCHAR
STARTCHAR U+002261
ENCODING 8801
SWIDTH 600 0
DWIDTH 8 0
BBX 8 16 0 -2
BITMAP
00
00
00
00
00
7E
00
7E
00
7E
00
00
00
00
00
00
ENDCHAR
STARTCHAR U+002192
ENCODING 8594
SWIDTH 600 0
DWIDTH 8 0
BBX 8 16 0 -2
BITMAP
00
00
00
00
04
04
02
FF
02
04
04
00
00
00
00
00
ENDCHAR
STARTCHAR U+0021D2
ENCODING 8658
SWIDTH 600 0
DWIDTH 8 0
BBX 8 16 0 -2
BITMAP
00
00
00
00
04
04
FE
03
FE
04
04
00
00
00
00
00
ENDCHAR
STARTCHAR U+0021D4
ENCODING 8660
SWIDTH 600 0
DWIDTH 8 0
BBX 8 16 0 -2
BITMAP
00
00
00
00
24
24
7E
C3
7E
24
24
00
00
00
00
00
ENDCHAR
STARTCHAR U+00AC
ENCODING 172
SWIDTH 600 0
DWIDTH 8 0
BBX 8 16 0 -2
BITMAP
00
00
00
00
00
00
7E
02
02
02
00
00
00
00
00
00
ENDCHAR
STARTCHAR U+002228
ENCODING 8744
SWIDTH 600 0
DWIDTH 8 0
BBX 8 16 0 -2
BITMAP
00
00
00
00
00
82
82
44
44
28
28
10
00
00
00
00
ENDCHAR
STARTCHAR U+002227
ENCODING 8743
SWIDTH 600 0
DWIDTH 8 0
BBX 8 16 0 -2
BITMAP
00
00
00
00
00
10
28
28
44
44
82
82
00
00
00
00
ENDCHAR
STARTCHAR U+0022A5
ENCODING 8869
SWIDTH 600 0
DWIDTH 8 0
BBX 8 16 0 -2
BITMAP
00
00
00
00
10
10
10
10
10
10
10
FE
00
00
00
00
ENDCHAR
STARTCHAR U+0022A4
ENCODING 8868
SWIDTH 600 0
DWIDTH 8 0
BBX 8 16 0 -2
BITMAP
00
00
00
00
FE
10
10
10
10
10
10
10
00
00
00
00
ENDCHAR
STARTCHAR U+002200
ENCODING 8704
SWIDTH 600 0
DWIDTH 8 0
BBX 8 16 0 -2
BITMAP
00
00
00
82
82
82
7C
44
44
28
28
10
10
00
00
00
ENDCHAR
STARTCHAR U+002203
ENCODING 8707
SWIDTH 600 0
DWIDTH 8 0
BBX 8 16 0 -2
BITMAP
00
00
00
7E
02
02
02
1E
02
02
02
02
7E
00
00
00
ENDCHAR
STARTCHAR U+0022A2
ENCODING 8866
SWIDTH 600 0
DWIDTH 8 0
BBX 8 16 0 -2
BITMAP
00
00
00
00
40
40
40
40
7E
40
40
40
40
00
00
00
ENDCHAR
STARTCHAR U+0022A8
ENCODING 8872
SWIDTH 600 0
DWIDTH 8 0
BBX 8 16 0 -2
BITMAP
00
00
00
00
40
40
7E
40
40
7E
40
40
00
00
00
00
ENDCHAR
STARTCHAR U+002282
ENCODING 8834
SWIDTH 600 0
DWIDTH 8 0
BBX 8 16 0 -2
BITMAP
00
00
00
00
00
00
3E
40
40
3E
00
00
00
00
00
00
ENDCHAR
STARTCHAR U+002286
ENCODING 8838
SWIDTH 600 0
DWIDTH 8 0
BBX 8 16 0 -2
BITMAP
00
00
00
00
00
00
3E
40
40
3E
00
08
00
00
00
00
ENDCHAR
STARTCHAR U+002283
ENCODING 8835
SWIDTH 600 0
DWIDTH 8 0
BBX 8 16 0 -2
BITMAP
00
00
00
00
00
00
7C
02
02
7C
00
00
00
00
00
00
ENDCHAR
STARTCHAR U+002194
ENCODING 8596
SWIDTH 600 0
DWIDTH 8 0
BBX 8 16 0 -2
BITMAP
00
00
00
00
24
24
42
FF
42
24
24
00
00
00
00
00
ENDCHAR
STARTCHAR U+0025A0
ENCODING 9632
SWIDTH 600 0
DWIDTH 8 0
BBX 8 16 0 -2
BITMAP
00
00
00
00
00
00
00
7E
7E
7E
7E
7E
7E
7E
00
00
ENDCHAR
STARTCHAR U+002191
ENCODING 8593
SWIDTH 600 0
DWIDTH 8 0
BBX 8 16 0 -2
BITMAP
00
00
00
00
10
38
54
54
10
10
10
10
10
00
00
00
ENDCHAR
STARTCHAR U+002193
ENCODING 8595
SWIDTH 600 0
DWIDTH 8 0
BBX 8 16 0 -2
BITMAP
00
00
00
00
10
10
10
10
10
54
54
38
10
00
00
00
ENDCHAR
STARTCHAR U+002234
ENCODING 8756
SWIDTH 600 0
DWIDTH 8 0
BBX 8 16 0 -2
BITMAP
00
00
00
00
00
00
00
18
18
00
00
66
66
00
00
00
ENDCHAR
STARTCHAR U+002235
ENCODING 8757
SWIDTH 600 0
DWIDTH 8 0
BBX 8 16 0 -2
BITMAP
00
00
00
00
00
00
00
66
66
00
00
18
18
00
00
00
ENDCHAR
STARTCHAR U+002020
ENCODING 8224
SWIDTH 600 0
DWIDTH 8 0
BBX 8 16 0 -2
BITMAP
00
00
10
10
7C
10
10
10
10
10
10
10
10
00
00
00
ENDCHAR
STARTCHAR U+0022BC
ENCODING 8892
SWIDTH 600 0
DWIDTH 8 0
BBX 8 16 0 -2
BITMAP
00
00
00
FE
00
10
28
28
44
44
82
82
00
00
00
00
ENDCHAR
STARTCHAR U+0022BD
ENCODING 8893
SWIDTH 600 0
DWIDTH 8 0
BBX 8 16 0 -2
BITMAP
00
00
00
FE
00
82
82
44
44
28
28
10
00
00
00
00
ENDCHAR
STARTCHAR U+0025C7
ENCODING 9671
SWIDTH 600 0
DWIDTH 8 0
BBX 8 16 0 -2
BITMAP
00
00
00
00
00
10
28
44
82
44
28
10
00
00
00
00
ENDCHAR
STARTCHAR U+0025FB
ENCODING 9723
SWIDTH 600 0
DWIDTH 8 0
BBX 8 16 0 -2
BITMAP
00
00
00
00
00
00
7C
44
44
44
7C
00
00
00
00
00
ENDCHAR
STARTCHAR U+0030
ENCODING 48
SWIDTH 600 0
DWIDTH 8 0
BBX 8 16 0 -2
BITMAP
00
00
FE
FE
C6
C6
C6
D6
C6
C6
C6
FE
FE
00
00
00
ENDCHAR
STARTCHAR U+0031
ENCODING 49
SWIDTH 600 0
DWIDTH 8 0
BBX 8 16 0 -2
BITMAP
00
00
38
78
F8
D8
18
18
18
18
18
FE
FE
00
00
00
ENDCHAR
STARTCHAR U+0032
ENCODING 50
SWIDTH 600 0
DWIDTH 8 0
BBX 8 16 0 -2
BITMAP
00
00
FE
FE
C6
C6
06
0E
3C
70
E0
FE
FE
00
00
00
ENDCHAR
STARTCHAR U+0033
ENCODING 51
SWIDTH 600 0
DWIDTH 8 0
BBX 8 16 0 -2
BITMAP
00
00
FE
FE
C6
06
06
1E
1E
06
C6
FE
FE
00
00
00
ENDCHAR
STARTCHAR U+0034
ENCODING 52
SWIDTH 600 0
DWIDTH 8 0
BBX 8 16 0 -2
BITMAP
00
00
0E
1E
36
36
66
66
C6
FE
FE
06
06
00
00
00
ENDCHAR
STARTCHAR U+0035
ENCODING 53
SWIDTH 600 0
DWIDTH 8 0
BBX 8 16 0 -2
BITMAP
00
00
FE
FE
C0
C0
FE
FE
06
06
C6
FE
FE
00
00
00
ENDCHAR
STARTCHAR U+0036
ENCODING 54
SWIDTH 600 0
DWIDTH 8 0
BBX 8 16 0 -2
BITMAP
00
00
FE
FE
C6
C0
FE
FE
C6
C6
C6
FE
FE
00
00
00
ENDCHAR
STARTCHAR U+0037
ENCODING 55
SWIDTH 600 0
DWIDTH 8 0
BBX 8 16 0 -2
BITMAP
00
00
FE
FE
06
06
06
06
06
06
06
06
06
00
00
00
ENDCHAR
STARTCHAR U+0038
ENCODING 56
SWIDTH 600 0
DWIDTH 8 0
BBX 8 16 0 -2
BITMAP
00
00
FE
FE
C6
C6
C6
FE
FE
C6
C6
FE
FE
00
00
00
ENDCHAR
STARTCHAR U+0039
ENCODING 57
SWIDTH 600 0
DWIDTH 8 0
BBX 8 16 0 -2
BITMAP
00
00
FE
FE
C6
C6
C6
FE
FE
06
06
06
06
00
00
00
ENDCHAR
STARTCHAR U+0041
ENCODING 65
SWIDTH 600 0
DWIDTH 8 0
BBX 8 16 0 -2
BITMAP
00
00
FE
FE
C6
C6
C6
FE
FE
C6
C6
C6
C6
00
00
00
ENDCHAR
STARTCHAR U+0042
ENCODING 66
SWIDTH 600 0
DWIDTH 8 0
BBX 8 16 0 -2
BITMAP
00
00
FC
FE
C6
C6
FC
FC
C6
C6
C6
FE
FC
00
00
00
ENDCHAR
STARTCHAR U+0043
ENCODING 67
SWIDTH 600 0
DWIDTH 8 0
BBX 8 16 0 -2
BITMAP
00
00
FE
FE
C0
C0
C0
C0
C0
C0
C0
FE
FE
00
00
00
ENDCHAR
STARTCHAR U+0044
ENCODING 68
SWIDTH 600 0
DWIDTH 8 0
BBX 8 16 0 -2
BITMAP
00
00
F8
FC
C6
C6
C6
C6
C6
C6
C6
FC
F8
00
00
00
ENDCHAR
STARTCHAR U+0045
ENCODING 69
SWIDTH 600 0
DWIDTH 8 0
BBX 8 16 0 -2
BITMAP
00
00
FE
FE
C0
C0
C0
F8
F8
C0
C0
FE
FE
00
00
00
ENDCHAR
STARTCHAR U+0046
ENCODING 70
SWIDTH 600 0
DWIDTH 8 0
BBX 8 16 0 -2
BITMAP
00
00
FE
FE
C0
C0
C0
FC
FC
C0
C0
C0
C0
00
00
00
ENDCHAR
STARTCHAR U+0047
ENCODING 71
SWIDTH 600 0
DWIDTH 8 0
BBX 8 16 0 -2
BITMAP
00
00
FE
FE
C6
C6
C0
C0
DE
DE
C6
FE
FE
00
00
00
ENDCHAR
STARTCHAR U+0048
ENCODING 72
SWIDTH 600 0
DWIDTH 8 0
BBX 8 16 0 -2
BITMAP
00
00
C6
C6
C6
C6
C6
C6
FE
FE
C6
C6
C6
00
00
00
ENDCHAR
STARTCHAR U+0049
ENCODING 73
SWIDTH 600 0
DWIDTH 8 0
BBX 8 16 0 -2
BITMAP
00
00
FE
FE
30
30
30
30
30
30
30
FE
FE
00
00
00
ENDCHAR
STARTCHAR U+004A
ENCODING 74
SWIDTH 600 0
DWIDTH 8 0
BBX 8 16 0 -2
BITMAP
00
00
FE
FE
0C
0C
0C
0C
0C
CC
CC
FC
FC
00
00
00
ENDCHAR
STARTCHAR U+004B
ENCODING 75
SWIDTH 600 0
DWIDTH 8 0
BBX 8 16 0 -2
BITMAP
00
00
C6
CC
D8
F0
E0
E0
E0
F0
D8
CC
C6
00
00
00
ENDCHAR
STARTCHAR U+004C
ENCODING 76
SWIDTH 600 0
DWIDTH 8 0
BBX 8 16 0 -2
BITMAP
00
00
C0
C0
C0
C0
C0
C0
C0
C0
C0
FE
FE
00
00
00
ENDCHAR
STARTCHAR U+004D
ENCODING 77
SWIDTH 600 0
DWIDTH 8 0
BBX 8 16 0 -2
BITMAP
00
00
C6
C6
EE
FE
D6
C6
C6
C6
C6
C6
C6
00
00
00
ENDCHAR
STARTCHAR U+004E
ENCODING 78
SWIDTH 600 0
DWIDTH 8 0
BBX 8 16 0 -2
BITMAP
00
00
C6
C6
C6
E6
F6
FE
DE
CE
C6
C6
C6
00
00
00
ENDCHAR
STARTCHAR U+004F
ENCODING 79
SWIDTH 600 0
DWIDTH 8 0
BBX 8 16 0 -2
BITMAP
00
00
FE
FE
C6
C6
C6
C6
C6
C6
C6
FE
FE
00
00
00
ENDCHAR
STARTCHAR U+0050
ENCODING 80
SWIDTH 600 0
DWIDTH 8 0
BBX 8 16 0 -2
BITMAP
00
00
FE
FE
C6
C6
FE
FE
C0
C0
C0
C0
C0
00
00
00
ENDCHAR
STARTCHAR U+0051
ENCODING 81
SWIDTH 600 0
DWIDTH 8 0
BBX 8 16 0 -2
BITMAP
00
00
FE
FE
C6
C6
C6
C6
C6
C6
C6
FE
FE
0C
0E
00
ENDCHAR
STARTCHAR U+0052
ENCODING 82
SWIDTH 600 0
DWIDTH 8 0
BBX 8 16 0 -2
BITMAP
00
00
FE
FE
C6
C6
FE
FE
F0
F8
DC
CE
C6
00
00
00
ENDCHAR
STARTCHAR U+0053
ENCODING 83
SWIDTH 600 0
DWIDTH 8 0
BBX 8 16 0 -2
BITMAP
00
00
FE
FE
C0
C0
C0
FE
FE
06
06
FE
FE
00
00
00
ENDCHAR
STARTCHAR U+0054
ENCODING 84
SWIDTH 600 0
DWIDTH 8 0
BBX 8 16 0 -2
BITMAP
00
00
FE
FE
30
30
30
30
30
30
30
30
30
00
00
00
ENDCHAR
STARTCHAR U+0055
ENCODING 85
SWIDTH 600 0
DWIDTH 8 0
BBX 8 16 0 -2
BITMAP
00
00
C6
C6
C6
C6
C6
C6
C6
C6
C6
FE
FE
00
00
00
ENDCHAR
STARTCHAR U+0056
ENCODING 86
SWIDTH 600 0
DWIDTH 8 0
BBX 8 16 0 -2
BITMAP
00
00
C6
C6
C6
C6
C6
C6
6C
6C
6C
7C
38
00
00
00
ENDCHAR
STARTCHAR U+0057
ENCODING 87
SWIDTH 600 0
DWIDTH 8 0
BBX 8 16 0 -2
BITMAP
00
00
C6
C6
C6
C6
C6
C6
C6
D6
FE
EE
C6
00
00
00
ENDCHAR
STARTCHAR U+0058
ENCODING 88
SWIDTH 600 0
DWIDTH 8 0
BBX 8 16 0 -2
BITMAP
00
00
C6
C6
C6
6C
38
38
6C
EE
C6
C6
C6
00
00
00
ENDCHAR
STARTCHAR U+0059
ENCODING 89
SWIDTH 600 0
DWIDTH 8 0
BBX 8 16 0 -2
BITMAP
00
00
C6
C6
C6
C6
C6
FE
FE
30
30
30
30
00
00
00
ENDCHAR
STARTCHAR U+005A
ENCODING 90
SWIDTH 600 0
DWIDTH 8 0
BBX 8 16 0 -2
BITMAP
00
00
FE
FE
06
0E
1C
38
70
E0
C0
FE
FE
00
00
00
ENDCHAR
STARTCHAR U+0061
ENCODING 97
SWIDTH 600 0
DWIDTH 8 0
BBX 8 16 0 -2
BITMAP
00
00
00
00
00
FE
FE
06
FE
FE
C6
FE
FE
00
00
00
ENDCHAR
STARTCHAR U+0062
ENCODING 98
SWIDTH 600 0
DWIDTH 8 0
BBX 8 16 0 -2
BITMAP
00
00
C0
C0
C0
FE
FE
C6
C6
C6
C6
FE
FE
00
00
00
ENDCHAR
STARTCHAR U+0063
ENCODING 99
SWIDTH 600 0
DWIDTH 8 0
BBX 8 16 0 -2
BITMAP
00
00
00
00
00
FE
FE
C0
C0
C0
C0
FE
FE
00
00
00
ENDCHAR
STARTCHAR U+0064
ENCODING 100
SWIDTH 600 0
DWIDTH 8 0
BBX 8 16 0 -2
BITMAP
00
00
06
06
06
FE
FE
C6
C6
C6
C6
FE
FE
00
00
00
ENDCHAR
STARTCHAR U+0065
ENCODING 101
SWIDTH 600 0
DWIDTH 8 0
BBX 8 16 0 -2
BITMAP
00
00
00
00
00
FE
FE
C6
FE
FE
C0
FE
FE
00
00
00
ENDCHAR
STARTCHAR U+0066
ENCODING 102
SWIDTH 600 0
DWIDTH 8 0
BBX 8 16 0 -2
BITMAP
00
00
7E
7E
60
FE
FE
60
60
60
60
60
60
00
00
00
ENDCHAR
STARTCHAR U+0067
ENCODING 103
SWIDTH 600 0
DWIDTH 8 0
BBX 8 16 0 -2
BITMAP
00
00
00
00
00
FE
FE
C6
C6
C6
FE
FE
06
FE
FE
00
ENDCHAR
STARTCHAR U+0068
ENCODING 104
SWIDTH 600 0
DWIDTH 8 0
BBX 8 16 0 -2
BITMAP
00
00
C0
C0
C0
FE
FE
C6
C6
C6
C6
C6
C6
00
00
00
ENDCHAR
STARTCHAR U+0069
ENCODING 105
SWIDTH 600 0
DWIDTH 8 0
BBX 8 16 0 -2
BITMAP
00
00
30
30
00
30
30
30
30
30
30
30
30
00
00
00
ENDCHAR
STARTCHAR U+006A
ENCODING 106
SWIDTH 600 0
DWIDTH 8 0
BBX 8 16 0 -2
BITMAP
00
00
18
18
00
18
18
18
18
18
18
18
18
78
78
00
ENDCHAR
STARTCHAR U+006B
ENCODING 107
SWIDTH 600 0
DWIDTH 8 0
BBX 8 16 0 -2
BITMAP
00
00
C0
C0
C0
C6
CC
D8
F0
F0
D8
CC
C6
00
00
00
ENDCHAR
STARTCHAR U+006C
ENCODING 108
SWIDTH 600 0
DWIDTH 8 0
BBX 8 16 0 -2
BITMAP
00
00
30
30
30
30
30
30
30
30
30
30
30
00
00
00
ENDCHAR
STARTCHAR U+006D
ENCODING 109
SWIDTH 600 0
DWIDTH 8 0
BBX 8 16 0 -2
BITMAP
00
00
00
00
00
C6
EE
FE
D6
C6
C6
C6
C6
00
00
00
ENDCHAR
STARTCHAR U+006E
ENCODING 110
SWIDTH 600 0
DWIDTH 8 0
BBX 8 16 0 -2
BITMAP
00
00
00
00
00
FE
FE
C6
C6
C6
C6
C6
C6
00
00
00
ENDCHAR
STARTCHAR U+006F
ENCODING 111
SWIDTH 600 0
DWIDTH 8 0
BBX 8 16 0 -2
BITMAP
00
00
00
00
00
FE
FE
C6
C6
C6
C6
FE
FE
00
00
00
ENDCHAR
STARTCHAR U+0070
ENCODING 112
SWIDTH 600 0
DWIDTH 8 0
BBX 8 16 0 -2
BITMAP
00
00
00
00
00
FE
FE
C6
C6
C6
C6
FE
FE
C0
C0
00
ENDCHAR
STARTCHAR U+0071
ENCODING 113
SWIDTH 600 0
DWIDTH 8 0
BBX 8 16 0 -2
BITMAP
00
00
00
00
00
FE
FE
C6
C6
C6
C6
FE
FE
06
06
00
ENDCHAR
STARTCHAR U+0072
ENCODING 114
SWIDTH 600 0
DWIDTH 8 0
BBX 8 16 0 -2
BITMAP
00
00
00
00
00
FE
FE
C0
C0
C0
C0
C0
C0
00
00
00
ENDCHAR
STARTCHAR U+0073
ENCODING 115
SWIDTH 600 0
DWIDTH 8 0
BBX 8 16 0 -2
BITMAP
00
00
00
00
00
FE
FE
C0
FE
FE
06
FE
FE
00
00
00
ENDCHAR
STARTCHAR U+0074
ENCODING 116
SWIDTH 600 0
DWIDTH 8 0
BBX 8 16 0 -2
BITMAP
00
00
30
30
30
7C
7C
30
30
30
30
30
30
00
00
00
ENDCHAR
STARTCHAR U+0075
ENCODING 117
SWIDTH 600 0
DWIDTH 8 0
BBX 8 16 0 -2
BITMAP
00
00
00
00
00
C6
C6
C6
C6
C6
C6
FE
FE
00
00
00
ENDCHAR
STARTCHAR U+0076
ENCODING 118
SWIDTH 600 0
DWIDTH 8 0
BBX 8 16 0 -2
BITMAP
00
00
00
00
00
C6
C6
C6
C6
6C
6C
38
38
00
00
00
ENDCHAR
STARTCHAR U+0077
ENCODING 119
SWIDTH 600 0
DWIDTH 8 0
BBX 8 16 0 -2
BITMAP
00
00
00
00
00
C6
C6
C6
C6
D6
FE
EE
C6
00
00
00
ENDCHAR
STARTCHAR U+0078
ENCODING 120
SWIDTH 600 0
DWIDTH 8 0
BBX 8 16 0 -2
BITMAP
00
00
00
00
00
C6
C6
6C
38
38
6C
C6
C6
00
00
00
ENDCHAR
STARTCHAR U+0079
ENCODING 121
SWIDTH 600 0
DWIDTH 8 0
BBX 8 16 0 -2
BITMAP
00
00
00
00
00
C6
C6
C6
C6
C6
C6
FE
FE
06
FE
FE
ENDCHAR
STARTCHAR U+007A
ENCODING 122
SWIDTH 600 0
DWIDTH 8 0
BBX 8 16 0 -2
BITMAP
00
00
00
00
00
FC
FC
0C
18
30
60
FC
FC
00
00
00
ENDCHAR
ENDFONT
